<svg width="56" height="56" viewBox="0 0 56 56" fill="none" xmlns="http://www.w3.org/2000/svg">
<path d="M32.64 41.944H27.168V49H19.584V41.944H1.48798V36.712L17.328 15.4H25.488L10.8 35.608H19.824V29.32H27.168V35.608H32.64V41.944ZM40.3192 49.384C39.0072 49.384 37.9032 48.936 37.0072 48.04C36.1112 47.144 35.6632 46.024 35.6632 44.68C35.6632 43.304 36.1112 42.2 37.0072 41.368C37.9032 40.504 39.0072 40.072 40.3192 40.072C41.6312 40.072 42.7352 40.504 43.6312 41.368C44.5272 42.2 44.9752 43.304 44.9752 44.68C44.9752 46.024 44.5272 47.144 43.6312 48.04C42.7352 48.936 41.6312 49.384 40.3192 49.384Z" stroke="white"/>
</svg>
