<svg width="57" height="56" viewBox="0 0 57 56" fill="none" xmlns="http://www.w3.org/2000/svg">
<path d="M15.8319 15.4V49H8.05594V21.64H1.33594V15.4H15.8319ZM26.0848 49.384C24.7728 49.384 23.6688 48.936 22.7728 48.04C21.8768 47.144 21.4288 46.024 21.4288 44.68C21.4288 43.304 21.8768 42.2 22.7728 41.368C23.6688 40.504 24.7728 40.072 26.0848 40.072C27.3968 40.072 28.5008 40.504 29.3968 41.368C30.2928 42.2 30.7408 43.304 30.7408 44.68C30.7408 46.024 30.2928 47.144 29.3968 48.04C28.5008 48.936 27.3968 49.384 26.0848 49.384Z" stroke="white"/>
</svg>
