<svg width="57" height="56" viewBox="0 0 57 56" fill="none" xmlns="http://www.w3.org/2000/svg">
<path d="M18.568 29.08C21.512 29.56 23.768 30.664 25.336 32.392C26.904 34.088 27.688 36.2 27.688 38.728C27.688 40.68 27.176 42.488 26.152 44.152C25.128 45.784 23.56 47.096 21.448 48.088C19.368 49.08 16.808 49.576 13.768 49.576C11.4 49.576 9.06403 49.272 6.76003 48.664C4.48803 48.024 2.55203 47.128 0.952026 45.976L3.97603 40.024C5.25603 40.984 6.72803 41.736 8.39203 42.28C10.088 42.792 11.816 43.048 13.576 43.048C15.528 43.048 17.064 42.68 18.184 41.944C19.304 41.176 19.864 40.104 19.864 38.728C19.864 35.976 17.768 34.6 13.576 34.6H10.024V29.464L16.936 21.64H2.63203V15.4H26.152V20.44L18.568 29.08ZM35.6943 49.384C34.3823 49.384 33.2783 48.936 32.3823 48.04C31.4863 47.144 31.0383 46.024 31.0383 44.68C31.0383 43.304 31.4863 42.2 32.3823 41.368C33.2783 40.504 34.3823 40.072 35.6943 40.072C37.0063 40.072 38.1103 40.504 39.0063 41.368C39.9023 42.2 40.3503 43.304 40.3503 44.68C40.3503 46.024 39.9023 47.144 39.0063 48.04C38.1103 48.936 37.0063 49.384 35.6943 49.384Z" stroke="white"/>
</svg>
