<svg width="57" height="56" viewBox="0 0 57 56" fill="none" xmlns="http://www.w3.org/2000/svg">
<path d="M27.976 42.664V49H2.58397V43.96L15.544 31.72C16.92 30.408 17.848 29.288 18.328 28.36C18.808 27.4 19.048 26.456 19.048 25.528C19.048 24.184 18.584 23.16 17.656 22.456C16.76 21.72 15.432 21.352 13.672 21.352C12.2 21.352 10.872 21.64 9.68797 22.216C8.50397 22.76 7.51197 23.592 6.71197 24.712L1.04797 21.064C2.35997 19.112 4.16797 17.592 6.47197 16.504C8.77597 15.384 11.416 14.824 14.392 14.824C16.888 14.824 19.064 15.24 20.92 16.072C22.808 16.872 24.264 18.024 25.288 19.528C26.344 21 26.872 22.744 26.872 24.76C26.872 26.584 26.488 28.296 25.72 29.896C24.952 31.496 23.464 33.32 21.256 35.368L13.528 42.664H27.976ZM36.0692 49.384C34.7572 49.384 33.6532 48.936 32.7572 48.04C31.8612 47.144 31.4132 46.024 31.4132 44.68C31.4132 43.304 31.8612 42.2 32.7572 41.368C33.6532 40.504 34.7572 40.072 36.0692 40.072C37.3812 40.072 38.4852 40.504 39.3812 41.368C40.2772 42.2 40.7252 43.304 40.7252 44.68C40.7252 46.024 40.2772 47.144 39.3812 48.04C38.4852 48.936 37.3812 49.384 36.0692 49.384Z" stroke="white"/>
</svg>
